<?xml version="1.0" standalone="no"?>
<!DOCTYPE svg PUBLIC "-//W3C//DTD SVG 20010904//EN"
 "http://www.w3.org/TR/2001/REC-SVG-20010904/DTD/svg10.dtd">
<svg version="1.0" xmlns="http://www.w3.org/2000/svg"
 width="512.000000pt" height="512.000000pt" viewBox="0 0 512.000000 512.000000"
 preserveAspectRatio="xMidYMid meet">
<metadata>
Created by potrace 1.14, written by Peter Selinger 2001-2017
</metadata>
<g transform="translate(0.000000,512.000000) scale(0.100000,-0.100000)"
fill="#000000" stroke="none">
<path d="M725 4580 c-4 -6 -10 -8 -14 -6 -4 3 -15 -8 -24 -24 -15 -25 -17 -78
-18 -510 -1 -451 0 -483 17 -516 10 -19 21 -34 25 -34 4 0 19 -17 35 -37 15
-20 21 -33 13 -29 -8 5 -1 -3 15 -18 16 -14 26 -26 22 -26 -4 0 3 -11 16 -24
49 -51 57 -63 45 -76 -9 -8 -8 -10 5 -5 11 4 20 0 27 -13 6 -11 9 -21 8 -23
-1 -2 0 -3 2 -2 9 5 31 -28 25 -38 -4 -7 -3 -9 3 -6 6 4 18 -2 27 -12 13 -15
14 -20 4 -24 -9 -4 -8 -6 3 -6 15 -1 54 -47 52 -61 0 -3 10 -15 24 -28 13 -12
21 -27 17 -34 -4 -6 -3 -8 3 -5 5 3 16 -3 24 -15 8 -11 20 -27 27 -34 7 -8 10
-19 6 -25 -4 -7 -3 -10 2 -7 5 3 14 1 19 -6 12 -14 19 -50 8 -43 -4 3 -8 -14
-8 -36 0 -23 -4 -64 -7 -92 -9 -62 -16 -117 -22 -175 -8 -75 -17 -144 -22
-170 -2 -14 -6 -50 -9 -80 -2 -30 -7 -75 -10 -100 -3 -25 -8 -61 -10 -80 -3
-19 -9 -73 -15 -120 -6 -47 -13 -96 -15 -110 -2 -14 -7 -56 -11 -95 -6 -65
-11 -100 -14 -100 0 0 -3 -27 -6 -60 -7 -71 -11 -110 -14 -110 0 0 -3 -22 -5
-50 -2 -27 -7 -68 -10 -90 -3 -22 -8 -62 -11 -90 -5 -48 -11 -90 -14 -90 -2 0
-12 -121 -12 -147 0 -16 -3 -28 -7 -28 -3 0 -7 -26 -8 -57 -2 -65 -11 -75
-132 -153 -67 -43 -70 -47 -71 -85 -3 -95 -6 -108 -19 -113 -9 -3 -11 0 -7 9
4 8 -2 3 -13 -10 -22 -25 -30 -111 -10 -111 5 0 8 -4 5 -9 -3 -4 6 -6 19 -3
15 2 25 0 25 -7 0 -6 5 -11 11 -11 5 0 8 4 5 8 -2 4 13 8 34 8 25 0 37 -3 33
-10 -4 -7 -1 -6 8 1 8 6 35 11 62 11 36 -1 47 -5 48 -17 0 -14 1 -14 7 -1 5
10 23 15 59 16 37 1 51 -2 46 -10 -5 -8 -3 -8 8 0 18 15 80 14 72 0 -3 -6 0
-5 8 2 19 17 39 15 40 -5 0 -15 2 -15 7 -3 5 11 24 15 64 16 39 1 55 -3 51
-10 -4 -7 -2 -7 8 1 20 16 109 14 109 -3 0 -7 4 -15 9 -18 5 -4 7 2 4 12 -4
15 3 18 51 18 38 1 53 -3 49 -10 -5 -8 -3 -8 8 0 18 15 80 14 72 0 -3 -6 0 -5
8 2 19 17 39 15 40 -5 0 -15 2 -15 7 -3 5 11 24 15 64 16 39 1 55 -3 51 -10
-4 -7 -2 -7 8 1 8 6 35 11 62 11 36 -1 47 -5 48 -17 0 -14 1 -13 7 1 5 13 11
15 22 8 8 -5 20 -10 25 -10 6 0 4 4 -3 9 -9 5 3 8 31 7 29 0 43 -4 39 -11 -3
-5 1 -5 9 2 8 6 34 12 57 11 24 0 45 2 48 4 2 3 4 107 5 232 0 170 3 225 12
220 8 -5 8 -2 0 7 -18 18 -18 163 0 153 9 -6 8 -3 -1 9 -16 19 -14 267 2 267
5 0 7 3 4 6 -8 7 22 94 32 94 4 0 10 9 13 21 4 13 10 18 18 13 8 -4 10 -3 5 4
-4 6 3 19 15 29 12 10 27 24 35 31 8 7 14 10 14 5 0 -4 4 -3 8 2 4 6 16 17 26
25 18 13 19 13 12 0 -4 -8 0 -6 9 5 13 16 19 18 35 7 16 -10 18 -9 13 5 -5 12
-2 15 10 10 9 -3 17 -2 17 3 0 18 38 11 43 -7 4 -17 5 -17 6 0 0 10 6 15 11
12 6 -3 10 0 10 7 0 10 3 9 9 -2 6 -8 7 -18 4 -24 -3 -5 -1 -6 6 -2 6 4 9 11
6 16 -3 5 4 8 15 7 12 -1 19 -6 16 -14 -3 -7 -1 -13 4 -13 6 0 10 6 10 14 0 9
7 12 20 9 11 -3 20 -10 20 -15 0 -6 7 -8 15 -4 8 3 19 -2 24 -12 5 -9 12 -16
15 -14 15 6 26 1 26 -12 0 -8 7 -17 16 -20 15 -6 15 -4 3 11 -12 15 -11 15 8
-1 13 -10 20 -23 16 -29 -3 -5 -2 -7 3 -4 6 3 16 2 24 -4 13 -7 13 -9 0 -9 -9
0 -4 -6 10 -13 14 -8 24 -19 23 -25 -2 -7 2 -12 7 -12 6 0 10 -9 10 -19 0 -11
4 -21 9 -23 5 -1 12 -19 15 -38 4 -19 9 -42 11 -50 2 -8 4 -205 4 -437 l1
-423 46 0 c25 0 55 -5 66 -11 15 -8 19 -8 14 0 -4 6 -3 11 3 11 5 0 13 -5 16
-10 3 -6 12 -10 18 -10 8 0 7 3 -2 9 -10 6 -3 9 22 8 22 -1 33 -5 30 -11 -3
-6 0 -5 8 2 19 17 39 15 40 -5 0 -15 2 -15 7 -3 5 11 24 15 64 16 39 1 55 -3
51 -10 -4 -7 -2 -7 8 1 20 16 109 14 109 -3 0 -7 4 -15 9 -18 5 -4 7 2 4 12
-4 15 3 18 51 18 38 1 53 -3 49 -10 -5 -8 -3 -8 8 0 18 15 80 14 72 0 -3 -6 0
-5 8 1 19 18 39 16 40 -4 0 -15 2 -15 7 -3 5 11 24 15 64 16 39 1 55 -3 51
-10 -4 -7 -2 -7 8 1 8 6 35 11 62 11 36 -1 47 -5 48 -17 0 -14 1 -13 7 1 5 13
11 15 22 8 8 -5 20 -10 25 -10 6 0 4 4 -3 9 -9 5 3 8 31 7 25 0 44 -3 41 -7
-2 -4 1 -11 7 -15 7 -4 9 -3 5 4 -3 6 -2 13 3 16 5 4 12 2 16 -4 3 -5 12 -10
18 -10 7 0 6 4 -3 10 -22 14 5 13 32 -1 11 -6 18 -7 15 -2 -3 5 12 9 33 9 21
0 37 -3 34 -7 -2 -4 1 -11 7 -15 8 -4 9 -3 5 5 -11 17 23 26 56 13 15 -5 26
-7 24 -3 -3 4 13 7 34 7 21 0 37 -3 34 -7 -2 -4 1 -11 7 -15 8 -4 9 -3 5 5
-11 17 23 26 56 13 15 -5 26 -7 24 -3 -3 4 23 8 57 9 34 1 67 3 73 4 6 1 12
23 13 50 2 49 -13 78 -36 71 -6 -2 -15 1 -19 8 -5 8 -3 10 7 4 11 -6 12 -5 2
6 -8 7 -13 39 -13 74 0 58 -1 61 -33 78 -46 25 -88 63 -80 71 4 4 1 5 -7 2 -8
-3 -29 7 -47 22 -26 22 -33 37 -38 82 -4 30 -9 57 -11 59 -2 2 2 11 9 19 8 10
8 13 1 9 -8 -5 -12 4 -13 26 0 17 -2 41 -4 52 -7 29 -19 143 -22 196 -1 25 -4
50 -7 55 -7 12 -22 146 -23 206 0 25 -3 44 -7 41 -5 -2 -8 13 -9 34 0 21 -2
47 -4 58 -9 45 -19 142 -20 178 0 20 -3 37 -6 37 -3 0 -5 15 -4 32 1 18 -1 38
-4 43 -3 6 -7 24 -8 40 -1 17 -4 48 -7 70 -3 22 -8 63 -11 90 -3 28 -7 59 -9
70 -2 11 -7 49 -11 85 -3 36 -8 76 -10 90 -4 24 -13 103 -22 185 -4 44 -9 80
-18 140 -11 73 -9 108 6 119 9 6 18 19 22 30 4 10 13 16 22 13 8 -4 12 -1 9 7
-6 15 30 59 40 49 4 -4 4 1 0 11 -5 14 -4 17 4 12 7 -4 12 -1 12 7 0 8 7 18
16 21 9 4 14 9 11 12 -5 5 10 26 60 82 13 14 23 31 23 38 0 8 6 14 14 14 8 0
18 5 22 12 5 7 3 8 -7 2 -8 -4 -1 7 15 26 16 19 33 34 38 32 5 -1 7 2 3 7 -7
12 25 52 36 46 4 -3 6 3 5 13 0 9 5 16 12 14 8 -1 11 1 8 6 -3 4 5 20 17 34
12 14 29 36 37 48 8 13 25 35 37 50 l23 28 0 491 c0 352 -3 491 -11 491 -6 0
-9 6 -6 13 5 13 -13 19 -70 20 -18 1 -33 5 -33 10 0 4 -9 3 -19 -3 -14 -7 -22
-7 -26 0 -4 6 -12 7 -18 3 -16 -10 -98 -10 -104 0 -2 4 -11 3 -19 -4 -11 -9
-14 -9 -14 0 0 7 -5 9 -11 5 -16 -10 -109 -12 -109 -2 0 5 -8 4 -18 -1 -13 -7
-23 -6 -32 2 -7 7 -10 7 -7 1 4 -6 -4 -17 -18 -24 l-24 -13 -1 -231 c-1 -249
-1 -254 -14 -275 -7 -10 -6 -12 4 -6 9 5 11 4 6 -4 -4 -7 -13 -10 -19 -8 -7 2
-20 0 -29 -5 -12 -6 -18 -5 -18 2 0 6 -5 8 -12 4 -16 -10 -58 -14 -58 -5 0 4
-7 8 -15 8 -8 0 -12 -4 -9 -9 3 -4 0 -8 -5 -8 -6 0 -11 4 -11 10 0 6 -9 6 -22
2 -28 -10 -89 -9 -105 1 -6 4 -15 2 -19 -4 -4 -8 -9 -7 -15 2 -6 10 -9 10 -9
2 0 -9 -7 -10 -25 -3 -14 5 -25 6 -25 1 0 -10 -32 -11 -45 0 -6 4 -17 4 -24
-1 -8 -4 -26 -4 -40 1 -26 9 -27 12 -29 95 -2 68 0 84 10 78 10 -5 11 -4 1 7
-9 9 -13 58 -13 169 0 125 -3 160 -16 178 -8 12 -22 22 -30 22 -8 0 -14 4 -14
8 0 10 -30 9 -48 -2 -6 -4 -12 -3 -12 3 0 7 -9 8 -22 3 -20 -7 -93 -8 -108 -2
-6 3 -41 2 -102 -3 -27 -2 -48 0 -48 6 0 5 -8 3 -17 -4 -15 -12 -16 -12 -8 1
7 13 6 13 -7 2 -12 -9 -23 -10 -44 -2 -16 6 -26 8 -22 5 4 -4 -5 -17 -19 -29
l-25 -22 1 -247 c0 -165 -3 -247 -10 -247 -5 0 -7 -5 -3 -12 5 -8 0 -9 -14 -6
-12 4 -20 2 -16 -3 3 -5 0 -9 -5 -9 -6 0 -11 4 -11 10 0 6 -9 6 -22 2 -28 -10
-89 -9 -105 1 -6 4 -15 2 -19 -4 -4 -8 -9 -7 -15 2 -6 10 -9 10 -9 2 0 -9 -7
-10 -25 -3 -16 6 -25 6 -25 -1 0 -6 -6 -6 -18 0 -10 5 -24 6 -31 1 -8 -4 -26
-4 -41 0 -15 4 -32 5 -38 1 -18 -11 -120 -5 -136 8 -12 10 -15 53 -15 258 0
170 -4 249 -12 259 -15 18 -66 43 -74 36 -9 -9 -95 -9 -95 1 0 4 -9 3 -19 -3
-14 -7 -22 -7 -26 0 -4 6 -12 7 -18 3 -16 -10 -98 -10 -104 0 -2 4 -11 3 -19
-4 -11 -9 -14 -8 -14 2 0 11 -2 11 -10 -1 -5 -8 -10 -10 -10 -4 0 12 -29 12
-48 0 -7 -4 -12 -2 -12 4 0 13 -50 -11 -68 -33 -8 -9 -12 -88 -13 -255 0 -133
-5 -242 -10 -242 -4 0 -5 -8 -2 -17 6 -16 5 -17 -12 -3 -10 8 -16 10 -12 3 12
-20 -14 -26 -29 -7 -9 11 -13 13 -9 7 3 -7 3 -13 -2 -14 -4 0 -16 -2 -25 -4
-10 -2 -20 0 -22 4 -3 4 -20 6 -38 4 -18 -2 -44 -3 -58 -3 -29 2 -29 2 -92 -3
-27 -2 -48 -1 -48 3 0 4 -7 7 -15 7 -8 0 -12 -4 -9 -9 3 -4 0 -8 -5 -8 -6 0
-11 4 -11 10 0 6 -9 6 -26 0 -18 -7 -30 -7 -38 0 -8 6 -16 6 -22 0 -6 -6 -18
-4 -32 6 -22 15 -22 18 -22 261 1 238 0 246 -21 269 -17 19 -30 22 -70 20 -28
-2 -49 1 -49 7 0 5 -8 3 -17 -4 -15 -12 -16 -12 -8 1 7 12 6 13 -6 4 -15 -12
-49 -15 -49 -4 0 4 -7 7 -15 7 -8 0 -12 -4 -9 -9 3 -4 0 -8 -5 -8 -6 0 -11 6
-11 13 0 8 -4 7 -10 -3 -5 -8 -10 -10 -10 -4 0 12 -29 12 -48 0 -6 -4 -12 -3
-12 3 0 7 -9 8 -22 3 -28 -10 -89 -9 -105 1 -6 4 -14 3 -18 -3z"/>
<path d="M2733 1545 c0 -8 4 -12 9 -9 5 3 6 10 3 15 -9 13 -12 11 -12 -6z"/>
<path d="M679 513 c-13 -16 -12 -17 4 -4 16 13 21 21 13 21 -2 0 -10 -8 -17
-17z"/>
<path d="M816 521 c-4 -5 3 -7 14 -4 23 6 26 13 6 13 -8 0 -17 -4 -20 -9z"/>
<path d="M958 523 c7 -3 16 -2 19 1 4 3 -2 6 -13 5 -11 0 -14 -3 -6 -6z"/>
<path d="M1296 521 c-4 -5 3 -7 14 -4 23 6 26 13 6 13 -8 0 -17 -4 -20 -9z"/>
<path d="M1438 523 c7 -3 16 -2 19 1 4 3 -2 6 -13 5 -11 0 -14 -3 -6 -6z"/>
<path d="M1776 521 c-4 -5 3 -7 14 -4 23 6 26 13 6 13 -8 0 -17 -4 -20 -9z"/>
<path d="M2016 521 c-4 -5 3 -7 14 -4 23 6 26 13 6 13 -8 0 -17 -4 -20 -9z"/>
<path d="M2855 520 c3 -5 8 -10 11 -10 2 0 4 5 4 10 0 6 -5 10 -11 10 -5 0 -7
-4 -4 -10z"/>
<path d="M3216 521 c-4 -5 3 -7 14 -4 23 6 26 13 6 13 -8 0 -17 -4 -20 -9z"/>
<path d="M3358 523 c7 -3 16 -2 19 1 4 3 -2 6 -13 5 -11 0 -14 -3 -6 -6z"/>
<path d="M3696 521 c-4 -5 3 -7 14 -4 23 6 26 13 6 13 -8 0 -17 -4 -20 -9z"/>
<path d="M4108 523 c7 -3 16 -2 19 1 4 3 -2 6 -13 5 -11 0 -14 -3 -6 -6z"/>
<path d="M4268 523 c7 -3 16 -2 19 1 4 3 -2 6 -13 5 -11 0 -14 -3 -6 -6z"/>
</g>
</svg>
